<svg width="25" height="26" viewBox="0 0 25 26" fill="none" xmlns="http://www.w3.org/2000/svg">
<path id="Icon__behance" d="M2.27273 0.5C1.01705 0.5 0 1.51705 0 2.77273V23.2273C0 24.483 1.01705 25.5 2.27273 25.5H22.7273C23.983 25.5 25 24.483 25 23.2273V2.77273C25 1.51705 23.983 0.5 22.7273 0.5H2.27273ZM15.3409 8.45455H18.2462C18.5598 8.45455 18.8144 8.70909 18.8144 9.02273C18.8144 9.33636 18.5598 9.59091 18.2462 9.59091H15.3409C15.0273 9.59091 14.7727 9.33636 14.7727 9.02273C14.7727 8.70909 15.0273 8.45455 15.3409 8.45455ZM5.59082 8.89178H8.75577C10.624 8.89178 11.7387 9.80573 11.7387 11.2932C11.7387 12.3137 10.9839 13.2041 9.99645 13.3507V13.4705C11.2714 13.5637 12.1982 14.5245 12.1982 15.7654C12.1993 17.4529 10.9246 18.522 8.86896 18.522H5.59082C5.01355 18.522 4.54545 18.0539 4.54545 17.4767V9.93715C4.54545 9.35987 5.01355 8.89178 5.59082 8.89178ZM6.56072 10.4321V12.8824H8.0744C9.16303 12.8835 9.75675 12.4355 9.75675 11.6617C9.75675 10.8946 9.20444 10.4321 8.24308 10.4321H6.56072ZM17.0033 11.0003C19.1726 11.0003 20.4523 12.3826 20.4523 14.7179V15.3105H15.4031V15.4103C15.4292 16.5047 16.0706 17.1859 17.0854 17.1859C17.8524 17.1859 18.3789 16.9132 18.5858 16.4268H20.3946C20.1014 17.8155 18.8322 18.6818 17.0299 18.6818C14.7879 18.6818 13.4677 17.2663 13.4677 14.8777C13.4677 12.4822 14.8146 11.0003 17.0033 11.0003ZM17.0122 12.4895C16.111 12.4895 15.4756 13.1152 15.4097 14.0698H18.5458C18.5049 13.0959 17.919 12.4895 17.0122 12.4895ZM6.56072 14.2451V16.9817H8.35627C9.51763 16.9817 10.1452 16.4923 10.1452 15.5923C10.1452 14.7105 9.49716 14.2451 8.30966 14.2451H6.56072Z" fill="white"/>
</svg>
