<svg width="25" height="26" viewBox="0 0 25 26" fill="none" xmlns="http://www.w3.org/2000/svg">
<path id="Icon__github" d="M12.5 0.5C5.59687 0.5 0 6.18451 0 13.1957C0 19.1447 4.03333 24.1225 9.47083 25.5C9.4125 25.3286 9.375 25.1297 9.375 24.8832V22.7133C8.86771 22.7133 8.01771 22.7133 7.80417 22.7133C6.94896 22.7133 6.18854 22.3398 5.81979 21.6458C5.41042 20.8745 5.33958 19.6949 4.325 18.9733C4.02396 18.7332 4.25312 18.4592 4.6 18.4962C5.24062 18.6803 5.77187 19.1267 6.27187 19.789C6.76979 20.4524 7.00417 20.6026 7.93437 20.6026C8.38542 20.6026 9.06042 20.5762 9.69583 20.4746C10.0375 19.5933 10.6281 18.7818 11.35 18.3989C7.1875 17.964 5.20104 15.8608 5.20104 13.0053C5.20104 11.7759 5.71667 10.5868 6.59271 9.58485C6.30521 8.59035 5.94375 6.56221 6.70312 5.78989C8.57604 5.78989 9.70833 7.02349 9.98021 7.35675C10.9135 7.03195 11.9385 6.84786 13.0156 6.84786C14.0948 6.84786 15.124 7.03195 16.0594 7.35887C16.3281 7.02772 17.4615 5.78989 19.3385 5.78989C20.101 6.56327 19.7354 8.59987 19.4448 9.59226C20.3156 10.592 20.8281 11.778 20.8281 13.0053C20.8281 15.8587 18.8448 17.9609 14.6885 18.3978C15.8323 19.004 16.6667 20.7074 16.6667 21.9907V24.8832C16.6667 24.9932 16.6427 25.0726 16.6302 25.1667C21.501 23.4327 25 18.7353 25 13.1957C25 6.18451 19.4031 0.5 12.5 0.5Z" fill="white"/>
</svg>
