<svg width="25" height="26" viewBox="0 0 25 26" fill="none" xmlns="http://www.w3.org/2000/svg">
<path id="Icon__pinterest" d="M12.5 0.5C5.59687 0.5 0 6.09687 0 13C0 18.2958 3.29479 22.8187 7.94479 24.6396C7.83542 23.651 7.73646 22.1333 7.98854 21.0542C8.21562 20.0792 9.45417 14.8406 9.45417 14.8406C9.45417 14.8406 9.08021 14.0917 9.08021 12.9854C9.08021 11.2469 10.0875 9.95 11.3417 9.95C12.4083 9.95 12.9229 10.751 12.9229 11.7104C12.9229 12.7833 12.2406 14.3865 11.8875 15.8719C11.5927 17.1167 12.5115 18.1313 13.7385 18.1313C15.9604 18.1313 17.6677 15.7885 17.6677 12.4073C17.6677 9.41458 15.5177 7.32187 12.4469 7.32187C8.89062 7.32187 6.80312 9.98958 6.80312 12.7469C6.80312 13.8208 7.21667 14.9729 7.73333 15.6C7.83542 15.724 7.85 15.8323 7.81979 15.9583C7.725 16.3531 7.51458 17.2021 7.47292 17.376C7.41875 17.6052 7.29167 17.6531 7.05521 17.5427C5.49375 16.8156 4.51771 14.5333 4.51771 12.7C4.51771 8.75729 7.38229 5.13542 12.7771 5.13542C17.1135 5.13542 20.4833 8.225 20.4833 12.3552C20.4833 16.6635 17.7667 20.1302 13.9969 20.1302C12.7302 20.1302 11.5396 19.4719 11.1323 18.6948C11.1323 18.6948 10.5052 21.0812 10.3531 21.6667C10.0708 22.7521 9.30937 24.1135 8.79896 24.9437C9.96875 25.3042 11.2115 25.5 12.5 25.5C19.4031 25.5 25 19.9031 25 13C25 6.09687 19.4031 0.5 12.5 0.5Z" fill="white"/>
</svg>
