<svg width="25" height="26" viewBox="0 0 25 26" fill="none" xmlns="http://www.w3.org/2000/svg">
<path id="Icon__instagram" d="M7.28963 0.5C3.26984 0.5 0 3.77287 0 7.7937V18.2104C0 22.2302 3.27287 25.5 7.2937 25.5H17.7104C21.7302 25.5 25 22.2271 25 18.2063V7.78963C25 3.76984 21.7271 0.5 17.7063 0.5H7.28963ZM19.7917 4.66667C20.3667 4.66667 20.8333 5.13333 20.8333 5.70833C20.8333 6.28333 20.3667 6.75 19.7917 6.75C19.2167 6.75 18.75 6.28333 18.75 5.70833C18.75 5.13333 19.2167 4.66667 19.7917 4.66667ZM12.5 6.75C15.9469 6.75 18.75 9.55312 18.75 13C18.75 16.4469 15.9469 19.25 12.5 19.25C9.05312 19.25 6.25 16.4469 6.25 13C6.25 9.55312 9.05312 6.75 12.5 6.75ZM12.5 8.83333C11.3949 8.83333 10.3351 9.27232 9.55372 10.0537C8.77232 10.8351 8.33333 11.8949 8.33333 13C8.33333 14.1051 8.77232 15.1649 9.55372 15.9463C10.3351 16.7277 11.3949 17.1667 12.5 17.1667C13.6051 17.1667 14.6649 16.7277 15.4463 15.9463C16.2277 15.1649 16.6667 14.1051 16.6667 13C16.6667 11.8949 16.2277 10.8351 15.4463 10.0537C14.6649 9.27232 13.6051 8.83333 12.5 8.83333Z" fill="white"/>
</svg>
