<svg width="50" height="72" viewBox="0 0 50 72" fill="none" xmlns="http://www.w3.org/2000/svg">
<path id="Logo__icon" d="M48.9422 32.74C48.9422 32.74 49.2812 31.5668 48.3174 30.9898C47.3574 30.4128 45.0679 32.1286 43.167 37.016C41.2661 41.9035 38.9118 48.1628 38.5194 48.4571C38.1232 48.7513 39.2775 7.76 33.2547 3.45337C27.2319 -0.853261 22.3824 8.29116 22.4243 14.9747C22.4662 21.6581 20.7634 26.8895 17.6777 29.6944C14.592 32.4992 17.472 36.0225 22.7253 37.1613C27.9785 38.3 34.2566 44.2574 34.1766 47.2648C34.0966 50.2722 29.4604 43.2448 28.8509 31.8649C28.2414 20.485 29.1138 0.954225 23.0948 1.00008C17.0758 1.04594 17.2967 13.4652 15.251 16.4726C13.2053 19.48 7.29302 28.0818 11.1749 31.67C15.0606 35.2621 28.5119 47.1387 28.1805 43.4397C27.8452 39.6986 11.0835 36.9511 6.05112 38.4108C1.01498 39.8706 0.653077 45.977 1.17879 50.4747C1.7045 54.9724 3.73114 65.0416 12.6987 63.1348C21.6662 61.2279 31.7652 55.2437 31.7995 52.5535C31.8338 49.8595 17.1329 39.5763 10.973 43.8409C8.42825 45.6064 7.06826 49.978 6.25303 54.5865C5.09875 61.1248 5.79208 68.0681 12.2149 68.0796C23.1672 68.1025 34.2604 55.4577 37.868 51.1167C41.4756 46.7757 38.1308 55.9316 35.049 62.7412C32.668 68.007 32.2261 72.4473 30.6947 70.5558C29.1633 68.6642 30.7709 64.5792 33.1099 60.5477C36.3709 54.9228 40.6946 48.5373 40.7442 46.2636C40.8356 42.3582 39.0985 44.4447 39.9823 37.3829C40.6146 32.3311 42.1803 26.3928 44.5613 24.8719C45.1289 24.5089 46.8736 23.9013 46.226 26.3431" stroke="white" stroke-miterlimit="10" stroke-linecap="round"/>
</svg>
